<?xml version="1.0" encoding="utf-8"?>
<!-- Generator: Adobe Illustrator 24.0.3, SVG Export Plug-In . SVG Version: 6.00 Build 0)  -->
<svg version="1.1" id="Layer_1" xmlns="http://www.w3.org/2000/svg" xmlns:xlink="http://www.w3.org/1999/xlink" x="0px" y="0px"
	 width="148px" height="30.9px" viewBox="0 0 148 30.9" style="enable-background:new 0 0 148 30.9;" xml:space="preserve">
<style type="text/css">
	.st0{enable-background:new    ;}
	.st1{fill:#4E5A80;}
	.st2{fill:#CB688F;}
	.st3{fill:#8A6295;}
	.st4{fill:url(#Path_532_1_);}
</style>
<g id="tt_logo" transform="translate(-40.996 -21)">
	<g id="text" transform="translate(82.006 22)">
		<g id="tempo_trip">
			<g class="st0">
				<path class="st1" d="M6,22H5V8H0.1V7h10.8v1H6V22z"/>
				<path class="st1" d="M17.4,22.2c-1.6,0-2.9-0.5-3.8-1.5c-0.9-1-1.4-2.4-1.4-4.2c0-1.8,0.4-3.2,1.3-4.3c0.9-1.1,2.1-1.6,3.5-1.6
					c1.3,0,2.3,0.5,3.1,1.4s1.1,2.2,1.1,3.7v0.8h-8c0,1.5,0.4,2.7,1.1,3.5c0.7,0.8,1.7,1.2,3,1.2c0.6,0,1.2,0,1.7-0.1
					c0.5-0.1,1.1-0.3,1.8-0.6v0.9c-0.6,0.3-1.2,0.5-1.7,0.6C18.6,22.2,18,22.2,17.4,22.2z M17.1,11.5c-1.1,0-1.9,0.4-2.6,1.1
					c-0.6,0.7-1,1.7-1.1,3.1h6.9c0-1.3-0.3-2.3-0.8-3C18.8,11.9,18.1,11.5,17.1,11.5z"/>
				<path class="st1" d="M38.3,22v-7.3c0-1.1-0.2-1.9-0.6-2.4s-1.1-0.7-1.9-0.7c-1.1,0-2,0.3-2.5,0.9s-0.8,1.6-0.8,3V22h-1v-7.6
					c0-1.9-0.9-2.8-2.6-2.8c-1.2,0-2,0.3-2.6,1c-0.5,0.7-0.8,1.8-0.8,3.3V22h-1V10.9h0.8l0.2,1.5h0.1c0.3-0.6,0.7-1,1.3-1.3
					c0.6-0.3,1.2-0.5,1.9-0.5c1.8,0,2.9,0.7,3.4,2h0c0.4-0.6,0.8-1.1,1.5-1.5c0.6-0.3,1.3-0.5,2.1-0.5c1.2,0,2.1,0.3,2.7,1
					s0.9,1.7,0.9,3.1V22H38.3z"/>
				<path class="st1" d="M47.7,22.2c-1.7,0-3-0.6-3.8-1.9h-0.1l0,0.9c0,0.5,0,1.1,0,1.7V27h-1V10.9h0.9l0.2,1.6h0.1
					c0.8-1.2,2-1.8,3.7-1.8c1.5,0,2.7,0.5,3.4,1.5c0.8,1,1.2,2.4,1.2,4.3c0,1.8-0.4,3.3-1.2,4.3C50.3,21.7,49.1,22.2,47.7,22.2z
					 M47.7,21.3c1.1,0,2-0.4,2.7-1.3c0.6-0.8,0.9-2,0.9-3.6c0-3.3-1.2-4.9-3.5-4.9c-1.3,0-2.3,0.4-2.9,1.1c-0.6,0.7-0.9,1.9-0.9,3.5
					v0.3c0,1.7,0.3,3,0.9,3.7C45.4,20.9,46.4,21.3,47.7,21.3z"/>
				<path class="st1" d="M64.7,16.4c0,1.8-0.4,3.2-1.3,4.3c-0.9,1-2.1,1.5-3.7,1.5c-1,0-1.8-0.2-2.6-0.7c-0.7-0.5-1.3-1.1-1.7-2
					c-0.4-0.9-0.6-1.9-0.6-3.1c0-1.8,0.4-3.2,1.3-4.3c0.9-1,2.1-1.5,3.6-1.5c1.5,0,2.7,0.5,3.6,1.5C64.2,13.2,64.7,14.6,64.7,16.4z
					 M55.9,16.4c0,1.5,0.3,2.7,1,3.6c0.7,0.9,1.6,1.3,2.9,1.3s2.2-0.4,2.9-1.3c0.7-0.9,1-2.1,1-3.6c0-1.5-0.3-2.7-1-3.6
					c-0.7-0.8-1.6-1.3-2.9-1.3s-2.2,0.4-2.8,1.3C56.2,13.7,55.9,14.9,55.9,16.4z"/>
			</g>
			<g class="st0">
				<path class="st1" d="M69.1,22h-1.3V11.8h-3.6v-1.2h8.6v1.2h-3.6V22z"/>
				<path class="st1" d="M76.2,17.2V22h-1.3V10.6H78c1.4,0,2.4,0.3,3.1,0.8c0.7,0.5,1,1.3,1,2.4c0,1.5-0.8,2.5-2.3,3.1l3.1,5.1h-1.6
					l-2.8-4.8H76.2z M76.2,16.1H78c0.9,0,1.6-0.2,2.1-0.6s0.7-0.9,0.7-1.7c0-0.8-0.2-1.3-0.7-1.6s-1.2-0.5-2.1-0.5h-1.7V16.1z"/>
				<path class="st1" d="M85.3,22V10.6h1.3V22H85.3z"/>
				<path class="st1" d="M97.4,13.9c0,1.2-0.4,2-1.2,2.7s-1.9,0.9-3.4,0.9h-1.3V22h-1.3V10.6h3C96,10.6,97.4,11.7,97.4,13.9z
					 M91.5,16.4h1.2c1.2,0,2-0.2,2.6-0.6c0.5-0.4,0.8-1,0.8-1.8c0-0.8-0.2-1.3-0.7-1.7c-0.5-0.4-1.3-0.6-2.3-0.6h-1.5V16.4z"/>
			</g>
		</g>
	</g>
	<g id="icon" transform="translate(40.996 21)">
		<path id="Path_530" class="st2" d="M32.2,17c-0.3,3.4-1.7,6.5-4.1,8.9c-0.6,0.6-1.3,1.2-2,1.7c-0.7,0.5-1.5,1-2.2,1.4
			c-1.6,0.8-3.3,1.4-5,1.7c-3.5,0.6-7.2,0.1-10.4-1.6c-1.6-0.8-3-1.8-4.2-3.1C3,24.8,2,23.4,1.3,21.8c-1.4-3.2-1.7-6.7-0.7-10.1
			c1-3.4,3.1-6.4,5.9-8.4c1.4-1.1,3-1.9,4.7-2.4C12.9,0.3,14.6,0,16.4,0c3.4,0,6.8,1.1,9.5,3.1c-2.9-1.6-6.2-2.3-9.5-2
			c-3.2,0.3-6.3,1.5-8.8,3.6C7.3,4.9,7,5.2,6.8,5.4C6.5,5.7,6.2,6,6,6.2L5.2,7.1C5,7.4,4.8,7.8,4.6,8.1c-0.8,1.3-1.4,2.7-1.8,4.1
			c-0.4,1.4-0.5,2.9-0.3,4.4l0,0.5c0,0.2,0.1,0.4,0.1,0.6l0.1,0.6l0,0.3c0,0.1,0,0.2,0.1,0.3L3,19.8l0.4,1c0.6,1.4,1.4,2.6,2.5,3.7
			c1.1,1.1,2.3,2,3.6,2.7c2.8,1.5,5.9,2.1,9.1,1.7c3.2-0.4,6.2-1.7,8.6-3.8C29.7,23,31.4,20.2,32.2,17z"/>
		<path id="Path_531" class="st3" d="M17.6,0.5C9.3,0.4,2.5,7,2.4,15.2c0,0,0,0,0,0v0C2.7,8,8.5,2.1,15.8,1.9
			c7.3-0.5,13.7,4.8,14.7,12c0.8,7.2-4.2,13.8-11.4,15c-7.2,1.4-14.2-3-16.2-10c1.8,6.7,7.8,11.3,14.7,11.2
			c8.3,0.1,15-6.5,15.1-14.8C32.6,7,25.8,0.4,17.6,0.5C17.6,0.5,17.6,0.5,17.6,0.5z"/>
		
			<linearGradient id="Path_532_1_" gradientUnits="userSpaceOnUse" x1="-224.4954" y1="387.8468" x2="-223.5004" y2="387.8468" gradientTransform="matrix(35.5132 0 0 -16.0655 7972.5483 6243.9512)">
			<stop  offset="0.37" style="stop-color:#F37A72"/>
			<stop  offset="1" style="stop-color:#F9A34D"/>
		</linearGradient>
		<path id="Path_532" class="st4" d="M35.3,5.6c-0.1-0.3-0.4-0.5-0.7-0.5C34.3,5,33.9,5,33.5,5c-0.8,0-1.7,0.2-2.5,0.5
			c-1,0.3-2,0.8-2.9,1.3l-1.9,1.1L24.3,9l-6-0.8l-6-0.8l-1.6,0.9L9.1,9.4l4,2l4,2l-2.2,1.3l-2.1,1.3l-2.3-0.8l-2.3-0.8l-1.1,0.6
			l-1.1,0.6l2,1.9l2,1.9c0,0,0.1,0.1,0.2,0.2c-0.5,0.1-0.9,0.1-1.4,0.1c-3.3,0.3-6.5-0.8-9-3l0.1,0.5l0.1,0.5c1,1,2.2,1.7,3.5,2.1
			c1,0.3,2.1,0.5,3.1,0.6c-2.3,0-4.6-0.7-6.6-2.1c0,0.2,0,0.3,0.1,0.5c0,0.2,0.1,0.4,0.2,0.6c0.9,0.6,1.9,1,3,1.3
			C4.6,20.9,5.7,21,6.9,21c1.9,0,3.8-0.3,5.7-0.8l0.2-0.1c1.3-0.2,2.6-0.5,3.9-1c2.3-0.8,4.5-1.8,6.6-3l3.9-2.3l3.9-2.4
			c1.4-0.8,2.6-1.9,3.7-3.1C35.4,7.3,35.7,6.3,35.3,5.6z"/>
	</g>
</g>
</svg>
